# xmcd
#
# Track frame offsets:
# 150
# 11107
# 22064
#
# Disc length: 440 seconds
#
#
# Revision: 1
# Processed by: cddbd v1.5.2PL0 Copyright (c) Steve Scherf et al.
# Submitted via: FreeRIP 2.951 
#
DISCID=1e01b603
DTITLE=Joe Nichols - What A Guy's Gotta Do - CD Single
DYEAR=2004
DGENRE=Country
TTITLE0=What A Guy's Gotta Do 1
TTITLE1=What A Guy's Gotta Do 2
TTITLE2=What A Guy's Gotta Do 3
EXTD=
EXTT0=
EXTT1=
EXTT2=
PLAYORDER=
